<svg width="65" height="65" viewBox="0 0 65 65" fill="none" xmlns="http://www.w3.org/2000/svg">
    <style>
        path {
        fill: #000;
        }
        @media (prefers-color-scheme: dark) {
        path {
        fill: #fff;
        }
        }
    </style>

    <path fill-rule="evenodd" clip-rule="evenodd"
        d="M32.5 65C50.4493 65 65 50.4493 65 32.5C65 14.5507 50.4493 0 32.5 0C14.5507 0 0 14.5507 0 32.5C0 50.4493 14.5507 65 32.5 65ZM29.435 21.3H27.5253L28.13 23.1H40.1V19.5C40.1 19.2613 40.1948 19.0324 40.3636 18.8636C40.5324 18.6948 40.7613 18.6 41 18.6H46.895C47.7698 18.6 48.5141 18.9006 49.1063 19.4946C49.408 19.7869 49.6468 20.1377 49.8083 20.5255C49.9697 20.9133 50.0502 21.33 50.045 21.75C50.045 22.6437 49.721 23.4069 49.1072 23.9622C48.5519 24.576 47.7878 24.9 46.895 24.9H45.5C45.3818 24.9 45.2647 24.8768 45.1555 24.8316C45.0463 24.7863 44.9471 24.7201 44.8635 24.6365C44.7799 24.5529 44.7136 24.4537 44.6683 24.3445C44.6231 24.2353 44.5998 24.1182 44.5998 24C44.5998 23.8818 44.6231 23.7647 44.6683 23.6555C44.7136 23.5463 44.7799 23.4471 44.8635 23.3635C44.9471 23.28 45.0463 23.2137 45.1555 23.1684C45.2647 23.1232 45.3818 23.1 45.5 23.1H46.895C47.2946 23.1 47.5718 22.9875 47.7896 22.7355C47.8179 22.703 47.8486 22.6726 47.8814 22.6446C48.1325 22.4259 48.245 22.1505 48.245 21.75C48.245 21.3594 48.1136 21.0471 47.8337 20.7663C47.5835 20.5161 47.2847 20.4 46.895 20.4H41.9V23.8524L43.2437 27.8484C43.984 27.6806 44.7409 27.5972 45.5 27.6C48.2252 27.6 50.5742 28.5666 52.4813 30.4737C54.4181 32.4096 55.4 34.7739 55.4 37.5C55.4 40.2288 54.4163 42.5805 52.4759 44.4867C50.5805 46.4163 48.2288 47.4 45.5 47.4C42.773 47.4 40.4087 46.4181 38.4737 44.4813C36.5666 42.5742 35.6 40.2252 35.6 37.5C35.6 34.7784 36.5648 32.4159 38.4692 30.4791C39.3962 29.5782 40.4222 28.887 41.5346 28.4118L40.6112 25.6668L31.9496 34.3671L32.8991 37.2156C32.9446 37.3508 32.9572 37.4949 32.9358 37.636C32.9143 37.777 32.8595 37.9109 32.7758 38.0265C32.6922 38.1421 32.5823 38.2362 32.4553 38.3011C32.3283 38.366 32.1877 38.3999 32.045 38.4H28.3631C28.1687 40.7481 27.1994 42.7929 25.4759 44.4867C23.5814 46.4154 21.2306 47.4 18.5 47.4C15.7739 47.4 13.4096 46.4181 11.4737 44.4813C9.56661 42.5742 8.60001 40.2252 8.60001 37.5C8.60001 34.7784 9.56481 32.4159 11.4683 30.4791C13.4159 28.5648 15.7784 27.6 18.5 27.6C20.9381 27.6 23.0747 28.3731 24.863 29.9022L27.5945 27.1383L26.7836 24.7416L26.7827 24.7371L25.6266 21.3H25.565C25.0876 21.3 24.6298 21.1104 24.2922 20.7728C23.9547 20.4352 23.765 19.9774 23.765 19.5C23.765 19.0226 23.9547 18.5648 24.2922 18.2272C24.6298 17.8896 25.0876 17.7 25.565 17.7H29.435C29.9124 17.7 30.3702 17.8896 30.7078 18.2272C31.0454 18.5648 31.235 19.0226 31.235 19.5C31.235 19.9774 31.0454 20.4352 30.7078 20.7728C30.3702 21.1104 29.9124 21.3 29.435 21.3ZM42.1061 30.1263C41.2273 30.5269 40.4255 31.0786 39.7373 31.7562C38.1686 33.351 37.4 35.2347 37.4 37.5C37.4 39.7626 38.1677 41.6292 39.7463 43.2087C41.3546 44.8179 43.2356 45.6 45.5 45.6C47.7599 45.6 49.6256 44.8197 51.2033 43.2141C52.8197 41.6256 53.6 39.7599 53.6 37.5C53.6 35.2365 52.8179 33.3555 51.2087 31.7463C49.6292 30.1677 47.7626 29.4 45.5 29.4C44.9132 29.4 44.3498 29.4558 43.817 29.5665L46.3541 37.2174C46.3913 37.3296 46.406 37.4481 46.3974 37.566C46.3888 37.6839 46.357 37.7989 46.304 37.9046C46.2509 38.0102 46.1775 38.1043 46.0881 38.1816C45.9986 38.2589 45.8948 38.3178 45.7826 38.355C45.6704 38.3922 45.5519 38.4069 45.434 38.3983C45.3161 38.3897 45.2011 38.3579 45.0954 38.3049C44.9898 38.2518 44.8957 38.1784 44.8184 38.089C44.7411 37.9995 44.6822 37.8957 44.645 37.7835L42.1061 30.1263ZM18.5 29.4C16.2347 29.4 14.351 30.1695 12.7409 31.7517C11.1695 33.351 10.4 35.2347 10.4 37.5C10.4 39.7626 11.1677 41.6292 12.7463 43.2087C14.3555 44.8179 16.2374 45.6 18.5 45.6C20.7608 45.6 22.6256 44.8197 24.2024 43.2141C25.5992 41.8416 26.3723 40.2621 26.5559 38.4H18.5C18.3213 38.4008 18.1464 38.3484 17.9977 38.2493C17.849 38.1502 17.7333 38.009 17.6652 37.8438C17.5972 37.6785 17.58 37.4967 17.6158 37.3217C17.6517 37.1466 17.7389 36.9862 17.8664 36.861L23.585 31.182C22.1207 29.9751 20.4584 29.4 18.5 29.4ZM28.364 36.6H30.7967L28.2425 29.0436L26.1338 31.1775C27.4487 32.7336 28.1966 34.5507 28.364 36.6ZM20.6834 36.6H26.5568C26.4047 35.0313 25.844 33.6633 24.8558 32.4564L20.6834 36.6ZM29.4773 27.087L31.3052 32.4627L38.8346 24.9H28.7375L29.4773 27.087Z"
        fill="white" />
</svg>