<svg xmlns="http://www.w3.org/2000/svg" width="410" height="66" fill="none"><path fill="#fff" d="M46.562 46.026c0 7.002-3.929 18.086-20.925 18.086H.285V1.725h23.139c5.288 0 17.423 1.297 17.423 16.14 0 6.103-2.739 10.938-6.68 13.048 4.482.53 12.395 3.899 12.395 15.113Zm-15.936-1.074c0-5.085-4.544-6.606-11.107-6.606h-3.638v13.213h4.862c5.271 0 9.883-1.521 9.883-6.607ZM15.882 26.287h3.076c2.002 0 7.404-.47 7.404-6.028s-5.512-6.028-7.404-6.028h-3.076v12.056ZM59.973 64.112V1.725H75.57v62.387H59.973ZM148.539 64.114h-20.796L112.286 44.22l-4.978-6.4v26.292H91.711V1.725h15.597V27.66l5.627-7.77 13.169-18.162h19.93L122.336 31.56l26.203 32.553ZM175.257 50.248h19.172v13.864H159.66V1.725h15.597v.117h19.172v13.864h-19.172v34.542Z"/><path fill="#fff" d="M178.778 32.971c0-4.652 3.655-8.424 8.163-8.424 4.507 0 8.162 3.772 8.162 8.424 0 4.653-3.655 8.424-8.162 8.424-4.508 0-8.163-3.771-8.163-8.424ZM278.082 44.7c0 14.436-11.355 21.141-23.501 21.141s-21.328-7.02-21.328-7.02l6.761-13.048c4.112 4.3 10.819 6.34 14.567 6.34 3.75 0 6.921-2.9 6.921-5.926 0-10.984-25.754-4.046-25.754-25.6 0-13.817 9.895-20.482 21.006-20.482 10.71 0 18.832 5.038 18.832 5.038l-6.277 12.636s-5.25-4.212-10.141-4.212c-3.647 0-6.92 1.353-6.92 5.368 0 9.33 25.833 3.325 25.834 25.765ZM409.724 44.7c0 14.436-11.355 21.141-23.501 21.141s-21.328-7.02-21.328-7.02l6.76-13.048c4.112 4.3 10.82 6.34 14.568 6.34 3.75 0 6.921-2.9 6.921-5.926 0-10.984-25.754-4.046-25.754-25.6 0-13.817 9.895-20.482 21.006-20.482 10.71 0 18.832 5.038 18.832 5.038l-6.277 12.636s-5.251-4.212-10.141-4.212c-3.647 0-6.921 1.353-6.921 5.368 0 9.33 25.834 3.325 25.835 25.765Z"/><path fill="#fff" fill-rule="evenodd" d="M319.5 66c17.949 0 32.5-14.55 32.5-32.5S337.449 1 319.5 1C301.551 1 287 15.55 287 33.5S301.551 66 319.5 66Zm-3.065-43.7h-1.91l.605 1.8h11.97v-3.6a.9.9 0 0 1 .9-.9h5.895c.875 0 1.619.3 2.211.895a3.077 3.077 0 0 1 .939 2.255c0 .894-.324 1.657-.938 2.212-.555.614-1.319.938-2.212.938H332.5a.898.898 0 0 1-.9-.9.904.904 0 0 1 .263-.637.903.903 0 0 1 .637-.263h1.395c.4 0 .677-.113.895-.365a.919.919 0 0 1 .091-.09c.252-.22.364-.494.364-.895 0-.39-.131-.703-.411-.984-.25-.25-.549-.366-.939-.366H328.9v3.452l1.344 3.996c.74-.167 1.497-.25 2.256-.248 2.725 0 5.074.967 6.981 2.874 1.937 1.936 2.919 4.3 2.919 7.026 0 2.729-.984 5.08-2.924 6.987-1.895 1.93-4.247 2.913-6.976 2.913-2.727 0-5.091-.982-7.026-2.919-1.907-1.907-2.874-4.256-2.874-6.981 0-2.722.965-5.084 2.869-7.02.927-.902 1.953-1.593 3.066-2.068l-.924-2.745-8.661 8.7.949 2.849a.895.895 0 0 1-.444 1.085.9.9 0 0 1-.41.099h-3.682c-.194 2.348-1.164 4.393-2.887 6.087-1.895 1.928-4.245 2.913-6.976 2.913-2.726 0-5.09-.982-7.026-2.919-1.907-1.907-2.874-4.256-2.874-6.981 0-2.722.965-5.084 2.868-7.02 1.948-1.915 4.31-2.88 7.032-2.88 2.438 0 4.575.773 6.363 2.302l2.732-2.764-.811-2.396-.001-.005-1.156-3.437h-.062a1.802 1.802 0 0 1-1.273-3.073 1.802 1.802 0 0 1 1.273-.527h3.87a1.802 1.802 0 0 1 1.273 3.073 1.802 1.802 0 0 1-1.273.527Zm12.671 8.826c-.879.4-1.68.953-2.369 1.63-1.568 1.595-2.337 3.479-2.337 5.744 0 2.263.768 4.13 2.346 5.709 1.609 1.609 3.49 2.391 5.754 2.391 2.26 0 4.126-.78 5.703-2.386 1.617-1.588 2.397-3.454 2.397-5.714 0-2.264-.782-4.145-2.391-5.754-1.58-1.578-3.446-2.346-5.709-2.346-.587 0-1.15.056-1.683.167l2.537 7.65a.896.896 0 0 1-.05.688.892.892 0 0 1-.521.45.904.904 0 0 1-1.138-.572l-2.539-7.657ZM305.5 30.4c-2.265 0-4.149.77-5.759 2.352-1.571 1.599-2.341 3.483-2.341 5.748 0 2.263.768 4.13 2.346 5.709 1.61 1.609 3.491 2.391 5.754 2.391 2.261 0 4.126-.78 5.702-2.386 1.397-1.372 2.17-2.952 2.354-4.814H305.5a.895.895 0 0 1-.835-.556.897.897 0 0 1 .201-.983l5.719-5.679c-1.464-1.207-3.127-1.782-5.085-1.782Zm9.864 7.2h2.433l-2.554-7.556-2.109 2.134c1.315 1.556 2.063 3.373 2.23 5.422Zm-7.681 0h5.874c-.152-1.569-.713-2.937-1.701-4.144l-4.173 4.144Zm8.794-9.513 1.828 5.376 7.53-7.563h-10.097l.739 2.187Z" clip-rule="evenodd"/></svg>